# xmcd
#
# Track frame offsets: 
#        150
#        30359
#        54077
#        75635
#        102956
#        128081
#        153559
#        176427
#        197238
#        227373
#
# Disc length: 3360 seconds
#
# Revision: 3
# Processed by: cddbd v1.5.2PL0 Copyright (c) Steve Scherf et al.
# Submitted via: ExactAudioCopy v1.3
#
DISCID=6c0d1e0a
DTITLE=nhạc vàng - Tuấn Vũ - Nhạc theo yêu cầu 1- NĐBD44
DYEAR=1990
DGENRE=Soul
TTITLE0=Tuấn vũ - Muoi Nam Tinh Cu
TTITLE1=Tuấn vũ - Nha Anh Nha Em
TTITLE2=Tuấn vũ - Lien Khuc Nguoi Yeu Co Don, Lanh Tron Dem Mua
TTITLE3=Tuấn vũ - Giot Le Sau
TTITLE4=Tuấn vũ - Nguoi Tinh La Lan
TTITLE5=Tuấn vũ - Yeu Mot Minh
TTITLE6=Tuấn vũ - Sau Le Bong
TTITLE7=Tuấn vũ - Sau Dong
TTITLE8=Tuấn vũ - Tinh Nhu May Khoi
TTITLE9=Tuấn vũ - Vet Thuong Cuoi Cung
EXTD=
EXTT0=
EXTT1=
EXTT2=
EXTT3=
EXTT4=
EXTT5=
EXTT6=
EXTT7=
EXTT8=
EXTT9=
PLAYORDER=
